<svg xmlns="http://www.w3.org/2000/svg" viewBox="0 0 128 128" width="128" height="128">
  <defs>
    <linearGradient id="nextjsGradient" x1="0%" y1="0%" x2="100%" y2="100%">
      <stop offset="0%" style="stop-color:#000000;stop-opacity:1" />
      <stop offset="100%" style="stop-color:#333333;stop-opacity:1" />
    </linearGradient>
    <radialGradient id="radarGradient" cx="50%" cy="50%" r="50%">
      <stop offset="0%" style="stop-color:#ffffff;stop-opacity:0.1" />
      <stop offset="70%" style="stop-color:#0070f3;stop-opacity:0.2" />
      <stop offset="100%" style="stop-color:#0070f3;stop-opacity:0.4" />
    </radialGradient>
  </defs>
  
  <!-- Background circle -->
  <circle cx="64" cy="64" r="60" fill="url(#radarGradient)" stroke="#0070f3" stroke-width="4" opacity="0.8"/>
  
  <!-- Radar grid circles -->
  <circle cx="64" cy="64" r="48" fill="none" stroke="#0070f3" stroke-width="1.5" opacity="0.5"/>
  <circle cx="64" cy="64" r="32" fill="none" stroke="#0070f3" stroke-width="1.5" opacity="0.6"/>
  <circle cx="64" cy="64" r="16" fill="none" stroke="#0070f3" stroke-width="1" opacity="0.7"/>
  
  <!-- Cross-hair lines -->
  <line x1="64" y1="8" x2="64" y2="120" stroke="#0070f3" stroke-width="1" opacity="0.3"/>
  <line x1="8" y1="64" x2="120" y2="64" stroke="#0070f3" stroke-width="1" opacity="0.3"/>
  <line x1="22.6" y1="22.6" x2="105.4" y2="105.4" stroke="#0070f3" stroke-width="1" opacity="0.2"/>
  <line x1="105.4" y1="22.6" x2="22.6" y2="105.4" stroke="#0070f3" stroke-width="1" opacity="0.2"/>
  
  <!-- Central Next.js logo (scaled for 128x128) -->
  <g transform="translate(64, 64) scale(2.2, 2.2) translate(-12, -12)">
    <!-- Official Next.js logo path -->
    <path d="M18.665 21.978C16.758 23.255 14.465 24 12 24 5.377 24 0 18.623 0 12S5.377 0 12 0s12 5.377 12 12c0 3.583-1.574 6.801-4.067 9.001L9.219 7.2H7.2v9.596h1.615V9.251l9.85 12.727Zm-3.332-8.533 1.6 2.061V7.2h-1.6v6.245Z" 
          fill="url(#nextjsGradient)"/>
  </g>
  
  <!-- Route detection blips (larger for 128x128) -->
  <circle cx="96" cy="32" r="4" fill="#10b981" opacity="0.9">
    <animate attributeName="opacity" values="0.3;0.9;0.3" dur="2s" repeatCount="indefinite"/>
  </circle>
  <circle cx="32" cy="96" r="4" fill="#f59e0b" opacity="0.9">
    <animate attributeName="opacity" values="0.9;0.3;0.9" dur="1.5s" repeatCount="indefinite"/>
  </circle>
  <circle cx="96" cy="96" r="4" fill="#ef4444" opacity="0.9">
    <animate attributeName="opacity" values="0.5;0.9;0.5" dur="2.5s" repeatCount="indefinite"/>
  </circle>
  <circle cx="32" cy="32" r="4" fill="#8b5cf6" opacity="0.9">
    <animate attributeName="opacity" values="0.7;0.3;0.7" dur="3s" repeatCount="indefinite"/>
  </circle>
  
  <!-- Additional blips -->
  <circle cx="80" cy="16" r="3" fill="#06b6d4" opacity="0.8">
    <animate attributeName="opacity" values="0.4;0.8;0.4" dur="1.8s" repeatCount="indefinite"/>
  </circle>
  <circle cx="48" cy="112" r="3" fill="#f97316" opacity="0.8">
    <animate attributeName="opacity" values="0.8;0.4;0.8" dur="2.2s" repeatCount="indefinite"/>
  </circle>
  
  <!-- Radar sweep line -->
  <line x1="64" y1="64" x2="108" y2="20" stroke="#0070f3" stroke-width="3" opacity="0.8">
    <animateTransform attributeName="transform" attributeType="XML" type="rotate" 
                      from="0 64 64" to="360 64 64" dur="3600s" repeatCount="indefinite"/>
  </line>
</svg>
